<mxfile host="65bd71144e" scale="2" border="0">
    <diagram id="sr7wLNoP8gmV6LjjL9Ct" name="第 1 页">
        <mxGraphModel dx="846" dy="768" grid="1" gridSize="10" guides="1" tooltips="1" connect="1" arrows="1" fold="1" page="1" pageScale="1" pageWidth="827" pageHeight="1169" math="0" shadow="0">
            <root>
                <mxCell id="0"/>
                <mxCell id="1" parent="0"/>
                <mxCell id="2" value="原&lt;br&gt;始&lt;br&gt;数&lt;br&gt;据" style="rounded=1;whiteSpace=wrap;html=1;direction=south;movable=1;resizable=1;rotatable=1;deletable=1;editable=1;connectable=1;" vertex="1" parent="1">
                    <mxGeometry x="40" y="240" width="40" height="120" as="geometry"/>
                </mxCell>
                <mxCell id="3" value="异&lt;br&gt;常&lt;br&gt;值&lt;br&gt;处&lt;br&gt;理" style="rounded=1;whiteSpace=wrap;html=1;direction=south;movable=1;resizable=1;rotatable=1;deletable=1;editable=1;connectable=1;" vertex="1" parent="1">
                    <mxGeometry x="130" y="240" width="40" height="120" as="geometry"/>
                </mxCell>
                <mxCell id="10" value="" style="shape=flexArrow;endArrow=classic;html=1;rounded=1;labelBackgroundColor=default;strokeColor=default;fontFamily=Helvetica;fontSize=11;fontColor=default;endSize=4.337931034482759;width=14.482758620689655;endWidth=10.70154577883472;movable=1;resizable=1;rotatable=1;deletable=1;editable=1;connectable=1;" edge="1" parent="1">
                    <mxGeometry width="50" height="50" relative="1" as="geometry">
                        <mxPoint x="90" y="299.65999999999997" as="sourcePoint"/>
                        <mxPoint x="120" y="299.65999999999997" as="targetPoint"/>
                    </mxGeometry>
                </mxCell>
                <mxCell id="11" value="缺&lt;br&gt;失&lt;br&gt;值&lt;br&gt;处&lt;br&gt;理" style="rounded=1;whiteSpace=wrap;html=1;direction=south;movable=1;resizable=1;rotatable=1;deletable=1;editable=1;connectable=1;" vertex="1" parent="1">
                    <mxGeometry x="220" y="240" width="40" height="120" as="geometry"/>
                </mxCell>
                <mxCell id="12" value="" style="shape=flexArrow;endArrow=classic;html=1;rounded=1;labelBackgroundColor=default;strokeColor=default;fontFamily=Helvetica;fontSize=11;fontColor=default;endSize=4.337931034482759;width=14.482758620689655;endWidth=10.70154577883472;movable=1;resizable=1;rotatable=1;deletable=1;editable=1;connectable=1;" edge="1" parent="1">
                    <mxGeometry width="50" height="50" relative="1" as="geometry">
                        <mxPoint x="180" y="299.65999999999997" as="sourcePoint"/>
                        <mxPoint x="210" y="299.65999999999997" as="targetPoint"/>
                    </mxGeometry>
                </mxCell>
                <mxCell id="13" value="" style="shape=flexArrow;endArrow=classic;html=1;rounded=1;labelBackgroundColor=default;strokeColor=default;fontFamily=Helvetica;fontSize=11;fontColor=default;endSize=4.337931034482759;width=14.482758620689655;endWidth=10.70154577883472;movable=1;resizable=1;rotatable=1;deletable=1;editable=1;connectable=1;" edge="1" parent="1">
                    <mxGeometry width="50" height="50" relative="1" as="geometry">
                        <mxPoint x="270" y="299.65999999999997" as="sourcePoint"/>
                        <mxPoint x="300" y="299.65999999999997" as="targetPoint"/>
                    </mxGeometry>
                </mxCell>
                <mxCell id="14" value="数&lt;br&gt;据&lt;br&gt;集&lt;br&gt;划&lt;br&gt;分" style="rounded=1;whiteSpace=wrap;html=1;direction=south;movable=1;resizable=1;rotatable=1;deletable=1;editable=1;connectable=1;" vertex="1" parent="1">
                    <mxGeometry x="310" y="240" width="40" height="120" as="geometry"/>
                </mxCell>
                <mxCell id="16" value="" style="shape=flexArrow;endArrow=classic;html=1;rounded=1;labelBackgroundColor=default;strokeColor=default;fontFamily=Helvetica;fontSize=11;fontColor=default;endSize=4.337931034482759;width=14.482758620689655;endWidth=10.70154577883472;movable=1;resizable=1;rotatable=1;deletable=1;editable=1;connectable=1;" edge="1" parent="1">
                    <mxGeometry width="50" height="50" relative="1" as="geometry">
                        <mxPoint x="359.9999999999999" y="299.65999999999997" as="sourcePoint"/>
                        <mxPoint x="389.9999999999999" y="299.65999999999997" as="targetPoint"/>
                    </mxGeometry>
                </mxCell>
                <mxCell id="17" value="数&lt;br&gt;据&lt;br&gt;标&lt;br&gt;准&lt;br&gt;化" style="rounded=1;whiteSpace=wrap;html=1;direction=south;movable=1;resizable=1;rotatable=1;deletable=1;editable=1;connectable=1;" vertex="1" parent="1">
                    <mxGeometry x="400" y="240" width="40" height="120" as="geometry"/>
                </mxCell>
                <mxCell id="18" value="" style="shape=flexArrow;endArrow=classic;html=1;rounded=1;labelBackgroundColor=default;strokeColor=default;fontFamily=Helvetica;fontSize=11;fontColor=default;endSize=4.337931034482759;width=14.482758620689655;endWidth=10.70154577883472;movable=1;resizable=1;rotatable=1;deletable=1;editable=1;connectable=1;" edge="1" parent="1">
                    <mxGeometry width="50" height="50" relative="1" as="geometry">
                        <mxPoint x="449.9999999999999" y="299.65999999999997" as="sourcePoint"/>
                        <mxPoint x="479.9999999999999" y="299.65999999999997" as="targetPoint"/>
                    </mxGeometry>
                </mxCell>
                <mxCell id="19" value="处&lt;br&gt;理&lt;br&gt;后&lt;br&gt;数&lt;br&gt;据" style="rounded=1;whiteSpace=wrap;html=1;direction=south;movable=1;resizable=1;rotatable=1;deletable=1;editable=1;connectable=1;" vertex="1" parent="1">
                    <mxGeometry x="490" y="240" width="40" height="120" as="geometry"/>
                </mxCell>
            </root>
        </mxGraphModel>
    </diagram>
</mxfile>